<svg xmlns="http://www.w3.org/2000/svg" viewBox="0 0 160.06 153.07"><defs><style>.cls-1{fill:#ef7d7c;}.cls-2{fill:#259e82;}</style></defs><g id="Calque_2" data-name="Calque 2"><g id="Calque_1-2" data-name="Calque 1"><path class="cls-1" d="M50.05,153.07q-14.69,0-25.94-6.43A46.74,46.74,0,0,1,6.43,128.86Q0,117.54,0,102.86,0,88,6.43,76.65A46.78,46.78,0,0,1,24.11,58.88q11.25-6.5,25.94-6.49A50.84,50.84,0,0,1,75.8,58.83,46.64,46.64,0,0,1,93.48,76.6Q99.93,88,99.93,102.84q0,14.68-6.36,26A45.93,45.93,0,0,1,76,146.62Q64.73,153.09,50.05,153.07Zm0-16.32a31.86,31.86,0,0,0,16.69-4.36,30.42,30.42,0,0,0,11.33-12,36.7,36.7,0,0,0,4.08-17.59,37.19,37.19,0,0,0-4.08-17.68A30.19,30.19,0,0,0,66.74,73.05a34.17,34.17,0,0,0-33.37,0A30.85,30.85,0,0,0,21.93,85.16a36.39,36.39,0,0,0-4.17,17.68,36,36,0,0,0,4.17,17.55,31,31,0,0,0,11.43,12,31.65,31.65,0,0,0,16.69,4.36Z"/><polygon class="cls-2" points="138.21 92.14 119.97 102.77 98.13 92.14 79.89 102.77 58.04 92.14 39.81 102.77 39.81 113.36 57.1 103.61 79.89 113.36 97.18 103.61 119.97 113.36 137.27 103.61 160.06 113.36 160.06 102.77 138.21 92.14"/><path class="cls-2" d="M81.36,47h0C72.1,47,64.52,16.84,64.52,16.84A16.89,16.89,0,0,1,81.36,0h0A16.89,16.89,0,0,1,98.21,16.84S90.63,47,81.36,47Z"/><path class="cls-2" d="M114.68,21.39a15,15,0,0,0-13.93-4A17,17,0,0,1,101,20S93.51,49.54,84.36,50.1A3.9,3.9,0,0,0,85,51h0c5.84,5.85,29.64-8.39,29.64-8.39A15.08,15.08,0,0,0,114.68,21.39Z"/></g></g></svg>