<svg xmlns="http://www.w3.org/2000/svg" viewBox="0 0 131.79 168.89"><defs><style>.cls-1{fill:#00a081;}.cls-2{fill:#ef7d7c;}</style></defs><g id="Calque_2" data-name="Calque 2"><g id="Calque_1-2" data-name="Calque 1"><path class="cls-1" d="M94.1,47h0c-9.27,0-16.85-30.15-16.85-30.15A16.91,16.91,0,0,1,94.1,0h0A16.91,16.91,0,0,1,111,16.85S103.36,47,94.1,47Z"/><path class="cls-1" d="M127.41,21.38a15.07,15.07,0,0,0-13.93-4,17.14,17.14,0,0,1,.2,2.58s-7.44,29.57-16.59,30.13a4.17,4.17,0,0,0,.68.94h0c5.84,5.84,29.64-8.39,29.64-8.39A15.07,15.07,0,0,0,127.41,21.38Z"/><circle class="cls-2" cx="60.11" cy="108.78" r="60.11"/></g></g></svg>