<svg xmlns="http://www.w3.org/2000/svg" viewBox="0 0 120.28 120.27"><defs><style>.cls-1{fill:#00a081;}.cls-2{fill:#d3e9e1;}</style></defs><g id="Calque_2" data-name="Calque 2"><g id="Calque_1-2" data-name="Calque 1"><path class="cls-1" d="M113.29,88.26a60.13,60.13,0,1,0-38.71,30.25h0a60.18,60.18,0,0,0,38.71-30.25ZM5.9,54.5a54.49,54.49,0,0,1,108.51,0Z"/><polygon class="cls-1" points="74.58 118.47 74.59 118.46 74.58 118.46 74.58 118.47"/><polygon class="cls-1" points="113.29 88.22 113.3 88.21 113.29 88.21 113.29 88.22"/><path class="cls-2" d="M64.76,70.94l8.91,34.77a3.45,3.45,0,0,0,6.17,1.11L87.31,96a3.56,3.56,0,0,1,1.63-1.26l12-4.48a3.45,3.45,0,0,0,2-4.42A3.5,3.5,0,0,0,101.37,84L69.78,67a3.44,3.44,0,0,0-5,3.91Z"/></g></g></svg>