<svg xmlns="http://www.w3.org/2000/svg" viewBox="0 0 120.25 67.93"><defs><style>.cls-1{fill:#00a081;}</style></defs><g id="Calque_2" data-name="Calque 2"><g id="Calque_1-2" data-name="Calque 1"><polygon class="cls-1" points="98.4 0 80.17 10.64 58.32 0 40.09 10.64 18.24 0 0 10.64 0 21.22 17.29 11.48 40.09 21.22 57.38 11.48 80.17 21.22 97.46 11.48 120.25 21.22 120.25 10.64 98.4 0"/><polygon class="cls-1" points="98.4 23.46 80.17 34.1 58.32 23.46 40.09 34.1 18.24 23.46 0 34.1 0 44.69 17.29 34.94 40.09 44.69 57.38 34.94 80.17 44.69 97.46 34.94 120.25 44.69 120.25 34.1 98.4 23.46"/><polygon class="cls-1" points="98.4 46.71 80.17 57.35 58.32 46.71 40.09 57.35 18.24 46.71 0 57.35 0 67.93 17.29 58.19 40.09 67.93 57.38 58.19 80.17 67.93 97.46 58.19 120.25 67.93 120.25 57.35 98.4 46.71"/></g></g></svg>