<svg xmlns="http://www.w3.org/2000/svg" viewBox="0 0 120.21 119.44"><defs><style>.cls-1{fill:#00a081;}</style></defs><g id="Calque_2" data-name="Calque 2"><g id="Calque_1-2" data-name="Calque 1"><path class="cls-1" d="M17.88,53.72h-12a54.49,54.49,0,0,1,108.51,0H98.74L120,64.07c.12-1.56.19-3.14.19-4.74A60.11,60.11,0,0,0,0,59.33c0,1.59.08,3.16.2,4.72Z"/><path class="cls-1" d="M97.42,65,80.13,74.76,57.34,65,40,74.76,17.23,65,1.71,73.76A59.06,59.06,0,0,0,5.38,84.28l12.8-7.46L40,87.46,58.26,76.82,80.13,87.46,98.36,76.82l16.21,7.89A59.55,59.55,0,0,0,118.39,74Z"/><path class="cls-1" d="M97.42,88.3,80.13,98,57.34,88.3,40,98,17.23,88.3,9.92,92.46A59,59,0,0,0,16.74,101l1.46-.84L40,110.74l18.24-10.63,21.85,10.63,18.23-10.63,4,1.93a59.5,59.5,0,0,0,7.19-8.56Z"/><path class="cls-1" d="M57.34,111.58l-11.08,6.24a59.83,59.83,0,0,0,26.36.3Z"/><polygon class="cls-1" points="18.57 53.72 40.05 64.17 57.96 53.72 18.57 53.72"/><polygon class="cls-1" points="98.05 53.72 58.65 53.72 80.13 64.17 98.05 53.72"/></g></g></svg>