<svg xmlns="http://www.w3.org/2000/svg" viewBox="0 0 120.22 176.11"><defs><style>.cls-1{fill:#00a081;}</style></defs><g id="Calque_2" data-name="Calque 2"><g id="Calque_1-2" data-name="Calque 1"><path class="cls-1" d="M82.53,47h0c-9.27,0-16.85-30.15-16.85-30.15A16.91,16.91,0,0,1,82.53,0h0A16.91,16.91,0,0,1,99.38,16.85S91.79,47,82.53,47Z"/><path class="cls-1" d="M115.84,21.38a15,15,0,0,0-13.93-4,17,17,0,0,1,.2,2.57S94.67,49.53,85.53,50.09a4.13,4.13,0,0,0,.67.94h0c5.84,5.84,29.64-8.39,29.64-8.39A15.07,15.07,0,0,0,115.84,21.38Z"/><circle class="cls-1" cx="60.11" cy="116" r="60.11"/></g></g></svg>