<svg xmlns="http://www.w3.org/2000/svg" viewBox="0 0 120.22 120.25"><defs><style>.cls-1{fill:#00a081;}.cls-2{fill:#ef7d7c;}</style></defs><g id="Calque_2" data-name="Calque 2"><g id="Calque_1-2" data-name="Calque 1"><path class="cls-1" d="M113.25,88.24A60,60,0,1,0,74.54,118.5h0a60.17,60.17,0,0,0,38.7-30.24h0ZM5.85,54.5a54.49,54.49,0,0,1,108.52,0Z"/><polygon class="cls-1" points="74.54 118.5 74.54 118.5 74.53 118.5 74.54 118.5"/><path class="cls-2" d="M57.36,112.39l-11.08,6.24a60,60,0,0,0,26.37.3Z"/><path class="cls-2" d="M17.9,54.5h-12a54.49,54.49,0,0,1,108.52,0H98.76L120,64.85c.12-1.56.19-3.14.19-4.74A60.11,60.11,0,0,0,0,60.11H0c0,1.59.08,3.16.2,4.72Z"/><path class="cls-2" d="M97.46,65.82,80.17,75.57,57.38,65.82,40.09,75.57,17.3,65.82,1.78,74.57A58.58,58.58,0,0,0,5.46,85.09l12.79-7.46L40.1,88.27,58.33,77.63,80.18,88.27,98.42,77.63l16.2,7.89a58.38,58.38,0,0,0,3.84-10.73Z"/><path class="cls-2" d="M97.46,89.11,80.17,98.85,57.38,89.11,40.09,98.85,17.3,89.11,10,93.24a60.15,60.15,0,0,0,6.83,8.52l1.45-.84,21.85,10.63,18.23-10.63,21.85,10.63,18.24-10.63,4,1.94a61.3,61.3,0,0,0,7.18-8.57Z"/><polygon class="cls-2" points="18.59 54.53 40.07 64.98 57.99 54.53 18.59 54.53"/><polygon class="cls-2" points="98.07 54.53 58.68 54.53 80.15 64.98 98.07 54.53"/></g></g></svg>