<svg xmlns="http://www.w3.org/2000/svg" viewBox="0 0 120.25 69.42"><defs><style>.cls-1{fill:#ef7d7c;}</style></defs><g id="Calque_2" data-name="Calque 2"><g id="Calque_1-2" data-name="Calque 1"><polygon class="cls-1" points="98.4 0 80.17 10.64 58.32 0 40.08 10.64 18.24 0 0 10.64 0 21.22 17.29 11.48 40.08 21.22 57.38 11.48 80.17 21.22 97.46 11.48 120.25 21.22 120.25 10.64 98.4 0"/><polygon class="cls-1" points="98.4 23.46 80.17 34.1 58.32 23.46 40.08 34.1 18.24 23.46 0 34.1 0 44.69 17.29 34.94 40.08 44.69 57.38 34.94 80.17 44.69 97.46 34.94 120.25 44.69 120.25 34.1 98.4 23.46"/><polygon class="cls-1" points="98.4 48.2 80.17 58.84 58.32 48.2 40.08 58.84 18.24 48.2 0 58.84 0 69.42 17.29 59.68 40.08 69.42 57.38 59.68 80.17 69.42 97.46 59.68 120.25 69.42 120.25 58.84 98.4 48.2"/></g></g></svg>