<svg xmlns="http://www.w3.org/2000/svg" viewBox="0 0 120.28 121"><defs><style>.cls-1{fill:#ef7d7c;}.cls-2{fill:#00a081;}</style></defs><g id="Calque_2" data-name="Calque 2"><g id="Calque_1-2" data-name="Calque 1"><path class="cls-1" d="M113.29,89a60.12,60.12,0,1,0-38.71,30.25h0A60.27,60.27,0,0,0,113.28,89h0ZM5.9,55.27a54.49,54.49,0,0,1,108.51,0Z"/><polygon class="cls-1" points="74.58 119.25 74.59 119.23 74.58 119.23 74.58 119.25"/><polygon class="cls-1" points="113.28 88.98 113.3 88.98 113.29 88.98 113.28 88.98"/><path class="cls-2" d="M18,55.27H6a54.49,54.49,0,0,1,108.51,0H98.86l21.2,10.36c.12-1.57.19-3.15.19-4.74A60.11,60.11,0,0,0,0,59.33q0,.78,0,1.56c0,1.59.08,3.15.2,4.71Z"/><path class="cls-2" d="M97.49,66.57,80.2,76.31,57.4,66.57,40.11,76.31,17.32,66.57,1.8,75.31A59.72,59.72,0,0,0,5.47,85.84l12.79-7.46L40.11,89,58.35,78.38,80.2,89,98.43,78.38l16.21,7.89a60.48,60.48,0,0,0,3.82-10.74Z"/><path class="cls-2" d="M97.49,89.85,80.2,99.6,57.4,89.85,40.11,99.6,17.32,89.85,10,94a62.54,62.54,0,0,0,6.83,8.49l1.45-.85,21.85,10.64,18.24-10.64L80.2,112.26l18.23-10.64,4,1.94A60,60,0,0,0,109.62,95Z"/><path class="cls-2" d="M57.4,113.13l-11.07,6.25a60,60,0,0,0,26.36.29Z"/><polygon class="cls-2" points="18.64 55.27 40.11 65.72 58.03 55.27 18.64 55.27"/><polygon class="cls-2" points="98.12 55.27 58.72 55.27 80.2 65.72 98.12 55.27"/></g></g></svg>