<svg xmlns="http://www.w3.org/2000/svg" viewBox="0 0 513.07 65.87"><defs><style>.cls-1{fill:#00a081;}</style></defs><g id="Calque_2" data-name="Calque 2"><g id="Calque_1-2" data-name="Calque 1"><polygon class="cls-1" points="0 0 0 4.54 247.45 4.54 247.45 7.82 255.11 4.54 256.39 4.54 262.2 7.82 269.86 4.54 271.15 4.54 276.96 7.82 284.62 4.54 285.91 4.54 291.72 7.82 299.38 4.54 300.66 4.54 306.47 7.82 314.14 4.54 315.42 4.54 321.23 7.82 328.89 4.54 330.18 4.54 335.99 7.82 343.65 4.54 344.93 4.54 350.75 7.82 358.41 4.54 359.69 4.54 365.5 7.82 373.16 4.54 374.45 4.54 380.26 7.82 387.92 4.54 389.21 4.54 395.02 7.82 402.68 4.54 403.96 4.54 409.77 7.82 417.43 4.54 418.72 4.54 424.53 7.82 432.19 4.54 433.48 4.54 439.29 7.82 446.95 4.54 448.23 4.54 454.05 7.82 461.71 4.54 462.99 4.54 468.8 7.82 476.46 4.54 477.75 4.54 483.56 7.82 491.22 4.54 492.5 4.54 498.32 7.82 505.98 4.54 507.26 4.54 513.07 7.82 513.07 4.54 513.07 3.92 513.07 0 0 0"/><polygon class="cls-1" points="0 29.85 0 34.39 291.72 34.39 291.72 37.66 299.38 34.39 300.66 34.39 306.47 37.66 314.14 34.39 315.42 34.39 321.23 37.66 328.89 34.39 330.18 34.39 335.99 37.66 343.65 34.39 344.93 34.39 350.75 37.66 358.41 34.39 359.69 34.39 365.5 37.66 373.16 34.39 374.45 34.39 380.26 37.66 387.92 34.39 389.21 34.39 395.02 37.66 402.68 34.39 403.96 34.39 409.77 37.66 417.43 34.39 418.72 34.39 424.53 37.66 432.19 34.39 433.48 34.39 439.29 37.66 446.95 34.39 448.23 34.39 454.05 37.66 461.71 34.39 462.99 34.39 468.8 37.66 476.46 34.39 477.75 34.39 483.56 37.66 491.22 34.39 492.5 34.39 498.32 37.66 505.98 34.39 507.26 34.39 513.07 37.66 513.07 34.39 513.07 33.77 513.07 29.85 0 29.85"/><polygon class="cls-1" points="0 58.06 0 62.6 380.26 62.6 380.26 65.87 387.92 62.6 389.21 62.6 395.02 65.87 402.68 62.6 403.96 62.6 409.77 65.87 417.43 62.6 418.72 62.6 424.53 65.87 432.19 62.6 433.48 62.6 439.29 65.87 446.95 62.6 448.23 62.6 454.05 65.87 461.71 62.6 462.99 62.6 468.8 65.87 476.46 62.6 477.75 62.6 483.56 65.87 491.22 62.6 492.5 62.6 498.32 65.87 505.98 62.6 507.26 62.6 513.07 65.87 513.07 62.6 513.07 61.98 513.07 58.06 0 58.06"/></g></g></svg>