<svg xmlns="http://www.w3.org/2000/svg" viewBox="0 0 513.07 65.87"><defs><style>.cls-1{fill:#ef7d7c;}</style></defs><g id="Calque_2" data-name="Calque 2"><g id="Calque_1-2" data-name="Calque 1"><polygon class="cls-1" points="0 0 0 3.92 0 4.54 0 7.81 5.81 4.54 7.1 4.54 14.76 7.81 20.57 4.54 21.86 4.54 29.52 7.81 35.33 4.54 36.61 4.54 44.27 7.81 50.09 4.54 51.37 4.54 59.03 7.81 64.84 4.54 66.13 4.54 73.79 7.81 79.6 4.54 80.88 4.54 88.55 7.81 94.36 4.54 95.64 4.54 103.3 7.81 109.11 4.54 110.4 4.54 118.06 7.81 123.87 4.54 125.16 4.54 132.82 7.81 138.63 4.54 139.91 4.54 147.57 7.81 153.39 4.54 154.67 4.54 162.33 7.81 168.14 4.54 169.43 4.54 177.09 7.81 182.9 4.54 184.18 4.54 191.85 7.81 197.66 4.54 198.94 4.54 206.6 7.81 212.41 4.54 213.7 4.54 221.36 7.81 227.17 4.54 228.46 4.54 236.12 7.81 241.93 4.54 243.21 4.54 250.87 7.81 256.68 4.54 257.97 4.54 265.63 7.81 265.63 4.54 513.07 4.54 513.07 0 0 0"/><polygon class="cls-1" points="0 29.85 0 33.76 0 34.39 0 37.66 5.81 34.39 7.1 34.39 14.76 37.66 20.57 34.39 21.86 34.39 29.52 37.66 35.33 34.39 36.61 34.39 44.27 37.66 50.09 34.39 51.37 34.39 59.03 37.66 64.84 34.39 66.13 34.39 73.79 37.66 79.6 34.39 80.88 34.39 88.55 37.66 94.36 34.39 95.64 34.39 103.3 37.66 109.11 34.39 110.4 34.39 118.06 37.66 123.87 34.39 125.16 34.39 132.82 37.66 138.63 34.39 139.91 34.39 147.57 37.66 153.39 34.39 154.67 34.39 162.33 37.66 168.14 34.39 169.43 34.39 177.09 37.66 182.9 34.39 184.18 34.39 191.85 37.66 197.66 34.39 198.94 34.39 206.6 37.66 212.41 34.39 213.7 34.39 221.36 37.66 221.36 34.39 513.07 34.39 513.07 29.85 0 29.85"/><polygon class="cls-1" points="0 58.06 0 61.97 0 62.6 0 65.87 5.81 62.6 7.1 62.6 14.76 65.87 20.57 62.6 21.86 62.6 29.52 65.87 35.33 62.6 36.61 62.6 44.27 65.87 50.09 62.6 51.37 62.6 59.03 65.87 64.84 62.6 66.13 62.6 73.79 65.87 79.6 62.6 80.88 62.6 88.55 65.87 94.36 62.6 95.64 62.6 103.3 65.87 109.11 62.6 110.4 62.6 118.06 65.87 123.87 62.6 125.16 62.6 132.82 65.87 132.82 62.6 513.07 62.6 513.07 58.06 0 58.06"/></g></g></svg>