<svg xmlns="http://www.w3.org/2000/svg" viewBox="0 0 560.56 112.22"><defs><style>.cls-1{fill:#ef7d7c;}.cls-2{fill:#00a081;}</style></defs><g id="Calque_2" data-name="Calque 2"><g id="Calque_1-2" data-name="Calque 1"><path class="cls-1" d="M318,112.21a36.21,36.21,0,0,1-18.35-4.56,32.89,32.89,0,0,1-12.52-12.58,36.58,36.58,0,0,1-4.55-18.42,36.91,36.91,0,0,1,4.55-18.51,33.13,33.13,0,0,1,12.52-12.59,39,39,0,0,1,36.59,0,33.18,33.18,0,0,1,12.54,12.59,40,40,0,0,1,.07,37,32.58,32.58,0,0,1-12.45,12.58A36.28,36.28,0,0,1,318,112.21Zm0-11.56a22.56,22.56,0,0,0,11.78-3.07,21.61,21.61,0,0,0,8-8.48,26,26,0,0,0,3-12.45,26.41,26.41,0,0,0-2.93-12.51,21.56,21.56,0,0,0-8-8.54,24.17,24.17,0,0,0-23.62,0,21.92,21.92,0,0,0-8.09,8.54,25.86,25.86,0,0,0-3,12.52,25.48,25.48,0,0,0,3,12.45,21.91,21.91,0,0,0,8.09,8.48A22.51,22.51,0,0,0,318,100.65Z"/><path class="cls-1" d="M122.68,33.27h0c-6.56,0-11.93-21.34-11.93-21.34A12,12,0,0,1,122.68,0h0A12,12,0,0,1,134.6,11.93S129.24,33.27,122.68,33.27Z"/><path class="cls-1" d="M146.26,15.14a10.64,10.64,0,0,0-9.86-2.83,12.29,12.29,0,0,1,.14,1.82s-5.27,20.94-11.74,21.33a2.24,2.24,0,0,0,.48.66h0c4.13,4.14,21-5.93,21-5.93A10.7,10.7,0,0,0,146.26,15.14Z"/><polygon class="cls-2" points="345.04 78.87 332.13 86.4 316.67 78.87 303.76 86.4 288.29 78.87 275.39 86.4 275.39 93.89 287.63 86.99 303.76 93.89 316 86.99 332.13 93.89 344.37 86.99 360.51 93.89 360.51 86.4 345.04 78.87"/><polygon class="cls-2" points="345.04 61.56 332.13 69.09 316.67 61.56 303.76 69.09 288.29 61.56 275.39 69.09 275.39 76.58 287.63 69.69 303.76 76.58 316 69.69 332.13 76.58 344.37 69.69 360.51 76.58 360.51 69.09 345.04 61.56"/><path class="cls-2" d="M6.42,23.5a6.17,6.17,0,0,1-.5-12.33H75.11a6.17,6.17,0,0,1,.5,12.33,4.17,4.17,0,0,1-.5,0Zm34.41,87.94a6.61,6.61,0,0,1-6.68-6.54V11.14H47.5v93.6A6.58,6.58,0,0,1,41,111.41h-.2Z"/><path class="cls-2" d="M107.33,112A36.34,36.34,0,0,1,89,107.4,33,33,0,0,1,76.46,94.81a39.75,39.75,0,0,1,0-37A33.07,33.07,0,0,1,89,45.23a39,39,0,0,1,36.59,0,33,33,0,0,1,12.52,12.61,40,40,0,0,1,.06,37,32.64,32.64,0,0,1-12.44,12.59A36.4,36.4,0,0,1,107.33,112Zm0-11.55a22.59,22.59,0,0,0,11.82-3.08,21.65,21.65,0,0,0,8-8.47A26.05,26.05,0,0,0,130,76.39a26.51,26.51,0,0,0-2.88-12.51,21.42,21.42,0,0,0-8-8.54,24.13,24.13,0,0,0-23.63,0,21.76,21.76,0,0,0-8.08,8.54,25.71,25.71,0,0,0-3,12.51,25.41,25.41,0,0,0,3,12.46,22,22,0,0,0,8.08,8.47A22.55,22.55,0,0,0,107.33,100.4Z"/><path class="cls-2" d="M191.68,112.08a32.86,32.86,0,0,1-15.85-3.78,27.37,27.37,0,0,1-11.05-11.11q-4-7.32-4-18V47.64a6.55,6.55,0,1,1,13.09-.51,4.34,4.34,0,0,1,0,.51V79.21q0,7.2,2.7,11.88A16.75,16.75,0,0,0,183.89,98a23.51,23.51,0,0,0,10.4,2.24,21.42,21.42,0,0,0,9.82-2.18,18,18,0,0,0,6.86-5.9,14.4,14.4,0,0,0,2.57-8.35h8.09a27.16,27.16,0,0,1-3.92,14.38,28.25,28.25,0,0,1-10.65,10.14A31.13,31.13,0,0,1,191.68,112.08Zm28.37-.64a6.36,6.36,0,0,1-6.55-6.16,2.41,2.41,0,0,1,0-.38V47.64a6.31,6.31,0,0,1,1.86-4.76,6.52,6.52,0,0,1,4.69-1.79,6.16,6.16,0,0,1,6.54,5.75,5.34,5.34,0,0,1,0,.8V104.9a6.46,6.46,0,0,1-1.79,4.68A6.3,6.3,0,0,1,220.05,111.44Z"/><path class="cls-2" d="M266.39,111.44a17,17,0,0,1-10-3.08,20.23,20.23,0,0,1-6.8-8.41,29,29,0,0,1-2.45-12.26V17.59A6.43,6.43,0,1,1,260,17.08a4.34,4.34,0,0,1,0,.51v70.1a15.34,15.34,0,0,0,1.79,7.83c1.2,2.06,2.74,3.08,4.62,3.08h3.22a5.35,5.35,0,0,1,4.17,1.8A6.72,6.72,0,0,1,275.4,105a5.51,5.51,0,0,1-2.45,4.62,10.28,10.28,0,0,1-6.29,1.8Z"/><path class="cls-2" d="M402.85,112a35.5,35.5,0,0,1-18.29-4.68A33.81,33.81,0,0,1,372,94.56a36.08,36.08,0,0,1-4.56-18.17,37.46,37.46,0,0,1,4.49-18.48,32.79,32.79,0,0,1,12.33-12.65,35,35,0,0,1,18-4.56,32.82,32.82,0,0,1,13.87,2.89,33.34,33.34,0,0,1,11.29,8.66,4.66,4.66,0,0,1,1.29,4.24,6.75,6.75,0,0,1-2.82,3.86,4.88,4.88,0,0,1-4,.83,7.82,7.82,0,0,1-4-2.25,20.65,20.65,0,0,0-15.67-6.68,21.9,21.9,0,0,0-11.55,3,21,21,0,0,0-7.84,8.41A27,27,0,0,0,380,76.37a25.54,25.54,0,0,0,2.9,12.33,21.81,21.81,0,0,0,8,8.53,22.32,22.32,0,0,0,11.93,3.15,25.78,25.78,0,0,0,7.9-1.09,18.66,18.66,0,0,0,6.23-3.4A7.85,7.85,0,0,1,421.19,94,5,5,0,0,1,425,95.24a6.19,6.19,0,0,1,2.45,4,4.8,4.8,0,0,1-1.55,4.05Q416.72,112,402.85,112Z"/><path class="cls-2" d="M477.45,112a30.85,30.85,0,0,1-16.82-4.68,33.21,33.21,0,0,1-11.74-12.71,37.68,37.68,0,0,1-4.31-18.17,35.7,35.7,0,0,1,4.68-18.25A34.7,34.7,0,0,1,462,45.37a36.9,36.9,0,0,1,36,0,34.74,34.74,0,0,1,12.65,12.77,35.62,35.62,0,0,1,4.69,18.23h-5A37.78,37.78,0,0,1,506,94.54a33.39,33.39,0,0,1-11.75,12.71A30.86,30.86,0,0,1,477.45,112ZM480,100.4a21.9,21.9,0,0,0,11.69-3.15,22.37,22.37,0,0,0,8.09-8.6,25.44,25.44,0,0,0,3-12.26,25.81,25.81,0,0,0-3-12.39,22.66,22.66,0,0,0-8.09-8.6,23.14,23.14,0,0,0-23.31,0,22.83,22.83,0,0,0-8.21,8.6,25.12,25.12,0,0,0-3,12.39,24.74,24.74,0,0,0,3,12.26,22.53,22.53,0,0,0,8.21,8.6A22,22,0,0,0,480,100.4Zm28.77,11.17a6.36,6.36,0,0,1-6.55-6.16,2.54,2.54,0,0,1,0-.39V85.38l2.45-13.61,10.65,4.62V105a6.39,6.39,0,0,1-6.21,6.55Z"/><path class="cls-2" d="M551.52,111.44a16.85,16.85,0,0,1-10-3.08,20.17,20.17,0,0,1-6.8-8.41,29,29,0,0,1-2.45-12.26V17.59a6.42,6.42,0,1,1,12.84,0v70.1a15.25,15.25,0,0,0,1.8,7.83c1.2,2.06,2.74,3.08,4.62,3.08h3.25a5.34,5.34,0,0,1,4.17,1.8,6.67,6.67,0,0,1,1.61,4.62,5.49,5.49,0,0,1-2.44,4.62,10.28,10.28,0,0,1-6.29,1.8Z"/></g></g></svg>