<?xml version="1.0" standalone="no"?>
<!DOCTYPE svg PUBLIC "-//W3C//DTD SVG 20010904//EN"
 "http://www.w3.org/TR/2001/REC-SVG-20010904/DTD/svg10.dtd">
<svg version="1.0" xmlns="http://www.w3.org/2000/svg"
 width="640.000000pt" height="640.000000pt" viewBox="0 0 640.000000 640.000000"
 preserveAspectRatio="xMidYMid meet">
<metadata>
Created by potrace 1.11, written by Peter Selinger 2001-2013
</metadata>
<g transform="translate(0.000000,640.000000) scale(0.100000,-0.100000)"
fill="#000000" stroke="none">
<path d="M3133 6249 c-154 -26 -312 -123 -410 -251 -108 -140 -163 -327 -132
-451 7 -28 14 -54 14 -57 1 -3 13 -44 28 -92 15 -48 28 -91 28 -95 1 -5 10
-30 21 -58 11 -27 20 -52 20 -55 1 -10 59 -168 86 -235 35 -85 147 -303 185
-359 49 -73 129 -155 181 -186 142 -85 311 36 462 327 44 86 125 269 152 348
12 33 34 97 51 143 16 45 27 82 24 82 -3 0 -1 6 5 13 5 6 17 39 26 72 9 33 24
89 34 125 49 170 -29 394 -193 554 -74 72 -203 145 -281 160 -12 3 -37 9 -55
14 -44 12 -179 13 -246 1z"/>
<path d="M4058 5572 c-26 -3 -27 -5 -23 -58 3 -42 -5 -83 -31 -172 -19 -64
-37 -124 -39 -132 -2 -8 -4 -16 -5 -17 -2 -2 -3 -6 -4 -10 -13 -49 -87 -255
-115 -319 -11 -24 -18 -44 -16 -44 8 0 -142 -288 -177 -340 -79 -118 -194
-220 -250 -220 -25 0 -22 -17 8 -45 37 -34 88 -49 169 -48 96 0 165 14 305 60
125 41 179 63 402 167 31 14 60 31 63 36 3 6 12 10 19 10 29 0 213 113 249
153 60 65 109 161 134 262 18 72 8 216 -21 326 -14 52 -74 150 -131 213 -56
62 -193 146 -261 161 -111 25 -182 29 -276 17z"/>
<path d="M1846 4163 c-1 -2 -32 -5 -69 -8 -65 -5 -105 -10 -157 -20 -14 -3
-38 -7 -55 -9 -16 -3 -50 -9 -75 -15 -25 -7 -56 -14 -70 -17 -127 -27 -337
-117 -500 -215 -91 -55 -102 -62 -118 -77 -8 -7 -27 -21 -41 -30 -58 -38 -258
-231 -329 -317 -53 -65 -157 -224 -199 -305 -38 -74 -97 -206 -108 -240 -1 -3
-12 -39 -25 -80 -13 -41 -25 -79 -26 -85 -25 -104 -34 -147 -39 -180 -4 -22
-8 -51 -11 -65 -27 -159 -26 -559 1 -710 3 -14 7 -36 9 -50 24 -139 103 -409
127 -434 5 -6 9 -18 9 -28 0 -10 5 -18 10 -18 6 0 10 -6 10 -13 0 -39 176
-324 262 -422 104 -120 280 -281 374 -342 10 -7 35 -23 54 -36 19 -13 42 -26
50 -30 8 -4 33 -18 55 -32 22 -14 47 -28 55 -31 8 -3 40 -17 70 -31 30 -14 73
-32 95 -40 22 -8 49 -19 60 -23 18 -8 53 -19 80 -26 6 -2 37 -11 70 -20 33 -9
67 -18 75 -19 8 -1 40 -7 70 -13 148 -30 230 -37 445 -37 212 0 304 8 440 36
28 6 61 12 75 15 81 14 281 84 396 139 273 130 507 323 697 573 26 34 47 65
47 68 0 3 10 20 23 37 39 55 161 287 151 287 -2 0 2 12 10 28 14 27 63 165 71
199 3 10 9 36 15 58 5 22 13 56 16 75 3 19 8 38 11 43 2 4 6 29 9 55 3 26 7
58 9 72 5 28 18 182 19 218 0 12 1 22 2 22 1 0 24 -10 51 -22 26 -11 53 -22
58 -24 6 -1 162 -68 348 -148 212 -92 343 -143 355 -139 15 6 69 35 205 112
20 11 54 30 75 42 20 12 43 26 50 31 6 6 12 7 12 2 0 -5 4 -4 8 2 7 11 34 27
172 102 36 19 76 42 90 52 56 37 73 39 120 16 25 -12 61 -28 80 -35 19 -8 53
-22 75 -31 22 -10 121 -52 220 -94 99 -42 194 -83 210 -91 38 -18 266 -115
271 -115 2 0 4 95 4 210 l0 211 -227 112 c-126 61 -230 112 -233 112 -3 1 -94
45 -204 98 -109 54 -201 99 -205 100 -6 2 -160 -84 -291 -163 -69 -41 -231
-135 -270 -156 -19 -10 -37 -22 -40 -25 -3 -4 -25 -17 -50 -29 -25 -12 -48
-27 -51 -32 -13 -19 -48 -9 -156 45 -62 30 -113 53 -113 50 0 -3 -8 1 -18 9
-9 8 -44 27 -77 43 -249 116 -505 246 -506 257 -1 19 -6 46 -24 118 -9 36 -17
72 -19 81 -15 63 -78 224 -127 324 -49 101 -148 268 -169 285 -3 3 -17 21 -30
40 -51 73 -212 240 -299 310 -24 19 -50 41 -57 48 -7 6 -17 12 -22 12 -6 0
-12 3 -14 8 -5 11 -66 52 -78 52 -5 0 -10 5 -10 10 0 6 -5 10 -10 10 -6 0 -28
11 -50 25 -40 26 -166 90 -207 106 -13 5 -33 13 -45 18 -101 40 -213 76 -274
87 -15 3 -30 7 -34 9 -10 6 -179 34 -250 41 -60 6 -389 12 -394 7z m289 -657
c102 -10 197 -29 263 -52 26 -9 52 -17 57 -19 43 -13 66 -22 133 -55 237 -115
429 -308 547 -551 45 -92 106 -271 119 -349 3 -19 8 -46 11 -60 6 -31 17 -133
19 -179 1 -24 -5 -37 -19 -45 -11 -6 -22 -13 -25 -16 -32 -32 -45 -28 -201 47
-85 42 -230 113 -324 158 -93 46 -217 106 -274 134 -57 28 -111 51 -120 51 -9
-1 -176 -95 -371 -209 l-355 -208 -2 -211 c-2 -195 -1 -211 15 -205 9 3 24 11
32 18 8 6 33 20 55 30 22 11 42 22 45 25 6 6 31 20 110 63 30 17 72 41 92 54
21 13 39 23 41 23 2 0 59 31 126 70 68 39 126 70 131 70 4 0 13 6 19 14 14 16
36 12 116 -24 107 -48 133 -59 230 -100 55 -23 114 -48 130 -56 121 -54 434
-186 452 -190 12 -2 25 0 28 6 4 6 10 8 15 5 4 -3 -7 -49 -26 -103 -54 -152
-127 -287 -213 -392 -50 -61 -190 -200 -202 -200 -4 0 -14 -6 -21 -12 -105
-100 -372 -208 -580 -235 -73 -9 -312 -9 -373 1 -27 4 -61 9 -75 11 -14 2 -40
9 -58 14 -18 5 -36 10 -40 11 -20 3 -58 13 -67 19 -5 3 -18 7 -28 8 -44 7
-266 124 -275 146 -2 4 -8 7 -13 7 -16 0 -122 90 -191 164 -148 156 -252 349
-309 570 -23 91 -24 92 -35 161 -11 66 -11 408 0 465 5 25 10 56 11 70 2 14 8
40 13 58 6 17 8 32 6 32 -3 0 -2 6 3 13 4 6 8 17 9 24 4 27 48 149 61 169 7
11 11 23 8 26 -3 3 1 11 10 18 8 7 15 18 15 26 0 27 100 182 178 274 53 64
152 152 234 209 62 43 231 127 275 137 7 1 34 9 60 18 76 25 192 47 273 53 41
2 76 6 77 7 3 3 112 -2 178 -8z"/>
</g>
</svg>
